<svg width="24" height="25" viewBox="0 0 24 25" fill="none" xmlns="http://www.w3.org/2000/svg">
<path d="M12 22C17.2467 22 21.5 17.7467 21.5 12.5C21.5 7.25329 17.2467 3 12 3C6.75333 3 2.50003 7.25329 2.50003 12.5C2.50003 17.7467 6.75333 22 12 22Z" fill="#EB1701" stroke="white"/>
<path fill-rule="evenodd" clip-rule="evenodd" d="M15 8.5C15 6.84 13.66 5.5 12 5.5C10.34 5.5 9.00003 6.84 9.00003 8.5C9.00003 10.16 10.34 11.5 12 11.5C13.66 11.5 15 10.16 15 8.5ZM6.00003 16.48C6.6568 17.4701 7.5484 18.2823 8.5953 18.8442C9.64221 19.406 10.8119 19.7001 12 19.7001C13.1882 19.7001 14.3579 19.406 15.4048 18.8442C16.4517 18.2823 17.3433 17.4701 18 16.48C17.97 14.49 13.99 13.4 12 13.4C10 13.4 6.03003 14.49 6.00003 16.48Z" fill="white"/>
</svg>
