<svg width="231" height="79" viewBox="0 0 231 79" fill="none" xmlns="http://www.w3.org/2000/svg">
<g clip-path="url(#clip0_2795_650)">
<g clip-path="url(#clip1_2795_650)">
<path d="M0 -10.5018H231V89.5018H0V-10.5018Z" fill="#EB1701"/>
<path fill-rule="evenodd" clip-rule="evenodd" d="M93.805 20.6564C88.7222 10.6973 75.8292 5.24258 57.3574 5.24258C35.2492 5.24258 21.819 12.8462 21.819 25.4912C21.819 33.4667 28.0589 38.7975 41.1998 42.2274L46.9438 43.715L52.5225 45.2027L58.2665 46.6903C58.5145 46.773 58.9277 46.8556 59.2996 47.0623C61.3658 47.8887 62.5642 49.0871 62.5642 50.4095C62.5642 53.0955 58.6798 54.9551 52.9358 54.9551C43.6792 54.9551 39.0097 53.0955 36.4063 48.4673L11.4467 51.8971C17.8105 63.4265 31.3648 69.1705 52.4399 69.1705C74.8374 69.1705 90.2925 60.3272 90.2925 47.5168C90.2925 40.4504 83.2674 33.756 72.6059 31.1526L67.647 29.9542L62.6882 28.6732L57.7293 27.4748C56.283 27.1029 55.002 26.7309 53.8449 26.359C50.9936 25.5326 49.6712 24.4168 49.6712 22.8465C49.6712 20.3258 52.9358 18.7555 58.0186 18.7555C64.9197 18.7555 69.8785 20.9043 71.4075 24.7887L93.805 20.6564ZM156.906 26.483H134.716L129.839 47.1862C128.186 54.1286 124.839 57.6411 119.839 57.6411C117.236 57.6411 115.789 56.5254 115.789 54.5005C115.789 53.8394 115.789 53.3021 116.492 50.4095L122.194 26.483H99.6317L93.5571 52.641C92.8546 55.7816 92.3587 58.4263 92.3587 59.79C92.3587 65.2034 99.2598 69.4597 108.062 69.4597C116.988 69.4597 122.442 66.9803 127.897 60.5338L125.996 68.344H147.154L156.906 26.483ZM161.7 26.483L151.824 68.344H173.56L179.511 43.2191C180.585 38.7975 183.436 36.5247 187.817 36.5247C191.37 36.5247 193.271 37.6404 193.271 39.8306C193.271 40.4091 193.023 41.7728 192.693 43.2191L186.866 68.344H209.098L215.751 39.7479C216.123 38.219 216.33 36.7726 216.33 35.4916C216.33 29.3757 209.553 25.202 199.594 25.202C190.461 25.202 183.808 28.012 180.461 33.2601L182.114 26.483H161.7ZM122.608 10.8626H126.823L127.525 7.722H113.764L113.021 10.8626H117.112L114.632 21.4002H120.17L122.608 10.8626ZM137.98 15.9454L136.699 21.4002H142.195L145.377 7.80465H139.84L138.683 12.8048H133.724L134.881 7.80465H129.385L126.203 21.4002H131.699L132.98 15.9454H137.98ZM159.014 18.3009H150.501L151.08 15.9041H157.94L158.642 12.9288H151.782L152.278 10.78H160.46L161.163 7.80465H147.526L144.344 21.4002H158.27L159.014 18.3009Z" fill="white"/>
</g>
</g>
<defs>
<clipPath id="clip0_2795_650">
<rect width="231" height="78" fill="white" transform="translate(0 0.5)"/>
</clipPath>
<clipPath id="clip1_2795_650">
<rect width="231" height="100.004" fill="white" transform="translate(0 -10.5018)"/>
</clipPath>
</defs>
</svg>
